<svg xmlns="http://www.w3.org/2000/svg" width="16" height="16" fill="none"><path fill="currentColor" d="m9.364 1.495-2.765-.007h-.002c-2.916 0-5.2 2.285-5.2 5.201 0 2.732 2.124 4.804 4.977 4.914v2.552c0 .072.03.19.08.268a.496.496 0 0 0 .69.153c.175-.112 4.315-2.76 5.391-3.67 1.268-1.074 2.027-2.647 2.029-4.209v-.011c-.004-2.911-2.287-5.191-5.2-5.192Zm2.525 8.648c-.756.64-3.242 2.27-4.515 3.095v-2.125a.5.5 0 0 0-.5-.5H6.61c-2.44 0-4.212-1.65-4.212-3.924 0-2.356 1.845-4.201 4.2-4.201l2.765.007c2.356 0 4.2 1.844 4.202 4.197-.002 1.273-.628 2.563-1.676 3.45Z"/></svg>
