<svg xmlns="http://www.w3.org/2000/svg" width="16" height="17" fill="none"><path fill="currentColor" d="M12.667 7.5V6.367H9.733v4.266h1.134V9.3H12.2V8.167h-1.333V7.5h1.8ZM7.8 6.367h1.133v4.266H7.8V6.367ZM5.4 7.433c.267 0 .6.134.8.334L7 7.1c-.4-.467-1-.733-1.6-.733-1.2 0-2.133.933-2.133 2.133S4.2 10.633 5.4 10.633c.667 0 1.2-.266 1.6-.733V8.233H5.133v.8h.8v.4a1.256 1.256 0 0 1-.533.134c-.6 0-1.067-.467-1.067-1.067 0-.533.467-1.067 1.067-1.067Z"/><path fill="currentColor" d="M13.667 1.847H2.333a1.5 1.5 0 0 0-1.5 1.498v10.338a1.5 1.5 0 0 0 1.5 1.497h11.334a1.5 1.5 0 0 0 1.5-1.497V3.345a1.5 1.5 0 0 0-1.5-1.498Zm.5 11.836a.5.5 0 0 1-.5.497H2.333a.5.5 0 0 1-.5-.497V3.345a.5.5 0 0 1 .5-.498h11.334a.5.5 0 0 1 .5.498v10.338Z"/></svg>
