<svg xmlns="http://www.w3.org/2000/svg" width="16" height="17" fill="none"><g fill="currentColor" clip-path="url(#a)"><path d="M-25.267 12.5c-.066-.067-.066-.067-.066-.133.066 0 .066.066.066.133ZM12 1.967h-.867v-.2c0-.267-.2-.534-.533-.534-.267 0-.533.2-.533.534v.2H5.133v-.2c0-.267-.2-.534-.533-.534-.267 0-.533.2-.533.534v.2H3.2a1.65 1.65 0 0 0-1.667 1.666v8.734A1.65 1.65 0 0 0 3.2 14.033h1.933c.267 0 .534-.2.534-.533 0-.267-.2-.533-.534-.533H3.2a.668.668 0 0 1-.667-.667V5.767c0-.2.267-.467.667-.467H12c.4 0 .667.267.667.467v1.2c0 .266.2.533.533.533.267 0 .533-.2.533-.533V3.633c-.066-.933-.8-1.666-1.733-1.666Zm.667 2.466c-.2-.066-.467-.133-.667-.133H3.2c-.267 0-.467.067-.667.133v-.8c0-.4.334-.666.667-.666h.867V3.3c0 .267.2.533.533.533.267 0 .533-.2.533-.533v-.333h5V3.3c0 .267.2.533.534.533.266 0 .533-.2.533-.533v-.333h.8c.4 0 .667.333.667.666v.8Z"/><path d="M10.334 7.433C8.067 7.433 6.2 9.3 6.2 11.567c0 2.266 1.867 4.133 4.134 4.133 2.266 0 4.133-1.867 4.133-4.133 0-2.267-1.867-4.134-4.133-4.134Zm0 7.334A3.13 3.13 0 0 1 7.2 11.633 3.13 3.13 0 0 1 10.334 8.5a3.13 3.13 0 0 1 3.133 3.133c0 1.667-1.4 3.134-3.133 3.134Z"/><path d="M12.6 12.967c-.067.133-.267.266-.4.266-.067 0-.2 0-.267-.066l-2.066-1.334v-2c0-.266.2-.533.533-.533.267 0 .533.2.533.533V11.3l1.6 1c.134.133.2.4.067.667Z"/></g><defs><clipPath id="a"><path fill="#fff" d="M0 .5h16v16H0z"/></clipPath></defs></svg>
